<svg xmlns="http://www.w3.org/2000/svg" viewBox="0 0 64 64">
  <rect width="64" height="64" rx="14" fill="#090c12"/>
  <path d="M32 6 56 19 32 32 8 19Z" fill="#8b7bff" opacity=".2"/>
  <path d="M8 19 32 32v26L8 45Z" fill="#3fe0cc" opacity=".11"/>
  <path d="M32 32 56 19v26L32 58Z" fill="#ecc164" opacity=".09"/>
  <g fill="none" stroke="#d9e2ec" stroke-width=".9" stroke-linecap="round" opacity=".24">
    <path d="M20 12.5 44 25.5M44 12.5 20 25.5"/>
    <path d="M20 25.5v26M8 32l24 13"/>
    <path d="M44 25.5v26M56 32 32 45"/>
  </g>
  <g fill="none" stroke="#d9e2ec" stroke-width="1.55" stroke-linecap="round" stroke-linejoin="round" opacity=".82">
    <path d="M32 6 56 19v26L32 58 8 45V19Z"/>
    <path d="M8 19 32 32l24-13M32 32v26"/>
  </g>
  <path d="m32 25.5 6.5 3.5-6.5 3.5-6.5-3.5Z" fill="#8b7bff" stroke="#090c12" stroke-width=".8"/>
  <path d="m25.5 29 6.5 3.5v7L25.5 36Z" fill="#3fe0cc" stroke="#090c12" stroke-width=".8"/>
  <path d="m32 32.5 6.5-3.5v7L32 39.5Z" fill="#ecc164" stroke="#090c12" stroke-width=".8"/>
</svg>
